<svg xmlns="http://www.w3.org/2000/svg" viewBox="0 0 600 200" fill="none" stroke="#1A1A1A" stroke-width="1.5" stroke-linecap="round" stroke-linejoin="round">
  <!-- Volcano left -->
  <path d="M50 180 L130 60 L170 100 L210 180" />
  <path d="M120 65 Q130 45 140 65" stroke-width="1" opacity="0.5" />
  <!-- Volcano center (larger) -->
  <path d="M200 180 L300 40 L400 180" />
  <path d="M285 48 Q300 20 315 48" stroke-width="1" opacity="0.5" />
  <!-- Volcano right -->
  <path d="M380 180 L460 70 L500 110 L540 180" />
  <!-- Lake water line -->
  <path d="M0 180 Q75 170 150 178 Q225 186 300 176 Q375 168 450 178 Q525 185 600 175" />
  <!-- Water ripples -->
  <path d="M100 188 Q130 184 160 188" stroke-width="1" opacity="0.3" />
  <path d="M250 192 Q280 188 310 192" stroke-width="1" opacity="0.3" />
  <path d="M400 186 Q430 182 460 186" stroke-width="1" opacity="0.3" />
  <path d="M180 196 Q200 193 220 196" stroke-width="1" opacity="0.2" />
  <path d="M350 194 Q370 191 390 194" stroke-width="1" opacity="0.2" />
  <!-- Small boat -->
  <path d="M320 182 Q330 178 340 182" stroke-width="1.5" />
  <line x1="330" y1="182" x2="330" y2="174" stroke-width="1" />
  <!-- Birds -->
  <path d="M150 50 Q155 45 160 50" stroke-width="1" opacity="0.4" />
  <path d="M170 42 Q175 37 180 42" stroke-width="1" opacity="0.4" />
  <path d="M440 55 Q445 50 450 55" stroke-width="1" opacity="0.3" />
</svg>
